<svg xmlns="http://www.w3.org/2000/svg" data-name="Layer 1" viewBox="0 0 64 64" width="23px" height="23px"><path fill="#1e7eae" d="M25.46,11.36a12.2,12.2,0,1,0,17.25,0A12.22,12.22,0,0,0,25.46,11.36ZM41.34,27.24a10.26,10.26,0,1,1,0-14.51A10.27,10.27,0,0,1,41.34,27.24Z"/><path d="M62.2,40.74l0,0-8.76-8.26V5.94a1,1,0,0,0-1-1H46.6V1a1,1,0,0,0-1-1H1.37a1,1,0,0,0-1,1V58.06a1,1,0,0,0,1,1H7.22v4a1,1,0,0,0,1,1H52.46a1,1,0,0,0,1-1V45.56l2,1.93a4.76,4.76,0,0,0,3.37,1.4,4.67,4.67,0,0,0,3.27-1.33,4.78,4.78,0,0,0,.47-.54A4.71,4.71,0,0,0,62.2,40.74ZM46.6,9V6.91h4.89V30.63l-.33-.31a1,1,0,0,0-1.35,0l-.28.27L47.89,29A16.45,16.45,0,0,0,46.55,9.23,1.19,1.19,0,0,0,46.6,9Zm1.56,23-2.07,2.07-1.44-1.44c.37-.31.74-.63,1.09-1s.67-.72,1-1.09Zm.47-12A14.53,14.53,0,1,1,44.37,9.7,14.48,14.48,0,0,1,48.63,20ZM2.34,57.09V1.94H44.66V7.36a16.48,16.48,0,0,0-22.23,1A16.48,16.48,0,0,0,43.08,33.79l1.64,1.64-.28.27a1,1,0,0,0-.29.7,1,1,0,0,0,.31.7l.2.18V57.09Zm49.15,5H9.16V59H45.63a1,1,0,0,0,1-1v-19l4.89,4.62Zm9.58-16.25a4.27,4.27,0,0,1-.37.41,2.77,2.77,0,0,1-3.88-.12l-10.3-9.73,4-4,1.26,1.18,9.07,8.56A2.79,2.79,0,0,1,61.07,45.81Z"/><path d="M36.75 38.51H10.24a1 1 0 0 0 0 1.94H36.75a1 1 0 0 0 0-1.94zM36.75 44.27H10.24a1 1 0 0 0 0 1.94H36.75a1 1 0 0 0 0-1.94zM36.75 50H10.24a1 1 0 0 0 0 1.94H36.75a1 1 0 0 0 0-1.94z"/></svg>