<svg xmlns="http://www.w3.org/2000/svg" data-name="Layer 1" viewBox="0 0 64 64"><circle cx="10.25" cy="40.75" r=".75"/><circle cx="14.75" cy="40.75" r=".75"/><path d="M17.637,48.093H17a7.9,7.9,0,0,0,2.011-3.5A3.244,3.244,0,0,0,20.361,38.9c.5-2.873.137-5.059-1.1-6.492a4.975,4.975,0,0,0-3.532-1.644,7.087,7.087,0,0,0-7.361-.644C5.014,31.8,3.734,34.763,4.5,38.9A3.244,3.244,0,0,0,5.853,44.6a7.9,7.9,0,0,0,2.024,3.512,4.457,4.457,0,0,0-3.326,1.724H4.324A3.317,3.317,0,0,0,1.87,55.387l.008,3.267A2.739,2.739,0,0,0,3.616,61.2V63h2V61.2a2.738,2.738,0,0,0,1.738-2.546l-.008-3.266a3.3,3.3,0,0,0-.534-4.933,2.462,2.462,0,0,1,1.272-.359h.289L9.3,51.712a3.608,3.608,0,0,0,6.264,0l.925-1.619h1.15a3.35,3.35,0,0,1,3.345,3.346L20.991,63l2,0-.009-9.561A5.351,5.351,0,0,0,17.637,48.093ZM4.616,59.393a.74.74,0,0,1-.738-.742l-.006-2.473H5.348l.006,2.476A.739.739,0,0,1,4.616,59.393Zm1.23-5.32h0l-.1.1H3.469l-.1-.1a1.325,1.325,0,0,1,.955-2.242h.567a1.325,1.325,0,0,1,.955,2.242Zm3.417-22.16a5.156,5.156,0,0,1,5.471.609,1.04,1.04,0,0,0,.721.242,2.974,2.974,0,0,1,2.306.971c.757.893.987,2.416.694,4.432-.049,0-.095-.015-.145-.015V37.3a1,1,0,0,0-.7-.953A4.571,4.571,0,0,1,15.17,34.6a1,1,0,0,0-.855-.494h-.008a1,1,0,0,0-.855.481c-.516.851-3.5,1.553-5.967,1.716a1,1,0,0,0-.935,1v.853c-.057,0-.111.015-.167.018C5.893,35.1,6.8,33.143,9.263,31.913ZM13.826,50.72a1.608,1.608,0,0,1-2.791,0l-.358-.627h3.507Zm-1.4-2.627c-2.3,0-4.3-1.935-4.776-4.6a.987.987,0,0,0-.965-.83,1.013,1.013,0,0,0-.133.009,1.26,1.26,0,0,1,0-2.519l.239-.005c.2,0,.484-.017.544-.018a1.014,1.014,0,0,0,.839-.2,1,1,0,0,0,.372-.779v-.937a13.933,13.933,0,0,0,5.67-1.649,6.848,6.848,0,0,0,2.09,1.425v1.161a.984.984,0,0,0,.336.785.932.932,0,0,0,.8.2c.132-.011.419,0,.616.006l.239.005a1.262,1.262,0,0,1,.021,2.523,1,1,0,0,0-1.118.817C16.736,46.158,14.727,48.093,12.43,48.093Z"/><rect width="2" height="7.822" x="17.513" y="55.178" transform="rotate(-.168 18.33 59.028)"/><path d="M12.43 45.551a1.24 1.24 0 0 1-1.238-1.239h-1a2.238 2.238 0 1 0 4.476 0h-1A1.24 1.24 0 0 1 12.43 45.551zM44 1A19.021 19.021 0 0 0 25 20a18.785 18.785 0 0 0 5.41 13.253A3.9 3.9 0 0 0 30 35a3.988 3.988 0 0 0 6.983 2.646A18.79 18.79 0 0 0 44 39 19 19 0 0 0 44 1zm0 36a16.855 16.855 0 0 1-6.958-1.5 1 1 0 0 0-1.291.439 1.988 1.988 0 1 1-3.288-2.2 1 1 0 0 0-.088-1.363A16.832 16.832 0 0 1 27 20 17 17 0 1 1 44 37z"/><circle cx="28.5" cy="41.5" r="1.5"/><path d="M52,9H36a1,1,0,0,0-1,1V30a1,1,0,0,0,1,1H52a1,1,0,0,0,1-1V10A1,1,0,0,0,52,9ZM51,29H37V11H51Z"/><path d="M41.879,24.182a1,1,0,0,0,.707-.293l6.364-6.364-1.414-1.414-5.657,5.657-1.415-1.414L39.05,21.768l2.122,2.121A1,1,0,0,0,41.879,24.182Z"/></svg>