<?xml version="1.0" encoding="utf-8"?>
<!-- Svg Vector Icons : http://www.onlinewebfonts.com/icon -->
<!DOCTYPE svg PUBLIC "-//W3C//DTD SVG 1.1//EN" "http://www.w3.org/Graphics/SVG/1.1/DTD/svg11.dtd">
<svg version="1.1" xmlns="http://www.w3.org/2000/svg" xmlns:xlink="http://www.w3.org/1999/xlink" width="23px" height="23px" x="0px" y="0px" viewBox="0 0 1000 1000" enable-background="new 0 0 1000 1000" xml:space="preserve">
<metadata> Svg Vector Icons : http://www.onlinewebfonts.com/icon </metadata>
<g><path fill="#9797A2" d="M855.9,773.6c-20,0-36.1,16.2-36.1,36.1v108H183.5V562.6h4.6c20,0,36.1-16.2,36.1-36.1c0-20-16.2-36.1-36.1-36.1h-4.6v-71.3h4.6c20,0,36.1-16.2,36.1-36.1c0-20-16.2-36.1-36.1-36.1h-4.6v-71.3h4.6c20,0,36.1-16.2,36.1-36.1c0-20-16.2-36.1-36.1-36.1h-4.6V82.8h636.1v264.7H359.5c-20,0-36.1,16.2-36.1,36.1c0,20,16.2,36.1,36.1,36.1h496.3c20,0,36.1-16.2,36.1-36.1v-304c0-38.3-30.2-69.6-67.3-69.6h-646c-37.1,0-67.3,31.1-67.3,69.6v123.6H70.5c-20,0-36.1,16.2-36.1,36.1c0,20,16.2,36.1,36.1,36.1h40.7v71.3H70.5c-20,0-36.1,16.2-36.1,36.1c0,20,16.2,36.1,36.1,36.1h40.7v71.3H70.5c-20,0-36.1,16.2-36.1,36.1c0,20,16.2,36.1,36.1,36.1h40.7v358.4c0,38.3,30.3,69.6,67.3,69.6h646c37.1,0,67.3-31.1,67.3-69.6V809.7C891.9,789.9,875.9,773.6,855.9,773.6z"/><path d="M471.5,494.9C458,469.4,431.1,452,400.2,452c-44.4,0-80.7,36.2-80.7,80.7c0,44.4,36.2,80.7,80.7,80.7c33,0,61.2-19.8,73.8-48.2h197.1c19.5,0,35.2-15.7,35.2-35.2c0-19.5-15.7-35.2-35.2-35.2H471.5V494.9z M400.2,567.3c-19.1,0-34.7-15.6-34.7-34.7c0-19.1,15.6-34.7,34.7-34.7c19.1,0,34.7,15.6,34.7,34.7C434.9,551.8,419.3,567.3,400.2,567.3z"/><path d="M955.3,496.4c-13.8-14.4-36.7-14.5-51.1-0.7l-206.5,201l-57.9-60.3c-13.8-14.4-36.7-14.9-51.1-1c-14.4,13.8-14.9,36.7-1,51.1l83.1,86.7c6.7,7,15.9,10.9,25.5,11.1c0.2,0,0.3,0,0.7,0c9.4,0,18.5-3.6,25.1-10.3l232.4-226.5C969,533.5,969.2,510.6,955.3,496.4z"/></g>
</svg>