<?xml version="1.0" encoding="utf-8"?>
<!-- Generator: Adobe Illustrator 15.1.0, SVG Export Plug-In  -->
<!DOCTYPE svg PUBLIC "-//W3C//DTD SVG 1.1//EN" "http://www.w3.org/Graphics/SVG/1.1/DTD/svg11.dtd" [
	<!ENTITY ns_flows "http://ns.adobe.com/Flows/1.0/">
]>
<svg version="1.1"
	 xmlns="http://www.w3.org/2000/svg" xmlns:xlink="http://www.w3.org/1999/xlink" xmlns:a="http://ns.adobe.com/AdobeSVGViewerExtensions/3.0/"
	 x="0px" y="0px" width="58px" height="58px" viewBox="-2.5 -2.5 128 128" enable-background="new -2.5 -2.5 128 128"
	 xml:space="preserve">
<defs>
</defs>
<circle fill="#9797A2" cx="61.5" cy="61.5" r="61.5"/>
<g>
	<g>
		<path fill="#FFFFFF" d="M70.158,53.64c3.039,0,5.5,2.464,5.5,5.503V69.36h-0.01v0.785c0,1.303-1.057,2.359-2.359,2.359
			c-1.301,0-2.357-1.057-2.357-2.359v-7.072h0.012v-3.931c0-0.436-0.35-0.786-0.785-0.786H52.859c-0.436,0-0.785,0.351-0.785,0.786
			V69.36h-0.006v0.785c0,1.303-1.057,2.359-2.357,2.359c-1.303,0-2.359-1.057-2.359-2.359v-7.072h0.006v-3.931
			c0-3.039,2.463-5.503,5.502-5.503H70.158z"/>
		<path fill="#FFFFFF" d="M88.223,59.143v11.003c0,1.303,1.057,2.359,2.359,2.359c1.301,0,2.357-1.057,2.357-2.359V59.143
			c0-3.039-2.463-5.503-5.502-5.503l-10.611-0.003c1.078,1.307,1.781,2.937,1.939,4.72h8.672
			C87.873,58.356,88.223,58.707,88.223,59.143z"/>
		<path fill="#FFFFFF" d="M30.061,70.146c0,1.303,1.057,2.359,2.357,2.359c1.303,0,2.359-1.057,2.359-2.359V59.143
			c0-0.436,0.352-0.786,0.785-0.786h8.689c0.158-1.783,0.861-3.413,1.939-4.72L35.563,53.64c-3.039,0-5.502,2.464-5.502,5.503
			V70.146z"/>
		<path fill="#FFFFFF" d="M61.5,31.633c5.207,0,9.432,4.224,9.432,9.431c0,5.208-4.225,9.434-9.432,9.434s-9.432-4.226-9.432-9.434
			C52.068,35.856,56.293,31.633,61.5,31.633z M61.5,36.35c-2.604,0-4.717,2.112-4.717,4.714c0,2.604,2.113,4.717,4.717,4.717
			s4.717-2.112,4.717-4.717C66.217,38.462,64.104,36.35,61.5,36.35z"/>
		<path fill="#FFFFFF" d="M81.936,34.778c4.342,0,7.859,3.517,7.859,7.859c0,4.34-3.518,7.859-7.859,7.859s-7.859-3.52-7.859-7.859
			C74.076,38.295,77.594,34.778,81.936,34.778z M81.936,39.493c-1.738,0-3.145,1.406-3.145,3.145c0,1.736,1.406,3.143,3.145,3.143
			c1.736,0,3.143-1.406,3.143-3.143C85.078,40.899,83.672,39.493,81.936,39.493z"/>
		<path fill="#FFFFFF" d="M41.064,34.778c4.342,0,7.859,3.517,7.859,7.859c0,4.34-3.518,7.859-7.859,7.859s-7.859-3.52-7.859-7.859
			C33.205,38.295,36.723,34.778,41.064,34.778z M41.064,39.493c-1.736,0-3.143,1.406-3.143,3.145c0,1.736,1.406,3.143,3.143,3.143
			c1.738,0,3.145-1.406,3.145-3.143C44.209,40.899,42.803,39.493,41.064,39.493z"/>
		<path fill="#FFFFFF" d="M32.418,75.647c-1.301,0-2.357,1.057-2.357,2.359v1.57c0,6.513,5.279,11.79,11.791,11.79h39.297
			c6.514,0,11.791-5.277,11.791-11.79v-1.57c0-1.303-1.057-2.359-2.357-2.359H32.418z M41.852,86.65
			c-3.643,0-6.639-2.75-7.031-6.288H88.18c-0.393,3.538-3.389,6.288-7.031,6.288H41.852z"/>
	</g>
</g>
</svg>
