<?xml version="1.0" encoding="utf-8"?>
<!-- Generator: Adobe Illustrator 15.1.0, SVG Export Plug-In  -->
<!DOCTYPE svg PUBLIC "-//W3C//DTD SVG 1.1//EN" "http://www.w3.org/Graphics/SVG/1.1/DTD/svg11.dtd" [
	<!ENTITY ns_flows "http://ns.adobe.com/Flows/1.0/">
]>
<svg version="1.1"
	 xmlns="http://www.w3.org/2000/svg" xmlns:xlink="http://www.w3.org/1999/xlink" xmlns:a="http://ns.adobe.com/AdobeSVGViewerExtensions/3.0/"
	 x="0px" y="0px" width="35px" height="35px" viewBox="-18.885 -21.141 128 128" enable-background="new -18.885 -21.141 128 128"
	 xml:space="preserve">
<defs>
</defs>
<g>
	<g>
		<path fill="#F9C13C" d="M57.539,31.58c4.361,0,7.893,3.535,7.893,7.896v14.662h-0.014v1.127c0,1.87-1.516,3.386-3.385,3.386
			c-1.867,0-3.384-1.516-3.384-3.386V45.117h0.017v-5.641c0-0.625-0.501-1.128-1.127-1.128H32.717c-0.625,0-1.127,0.503-1.127,1.128
			v14.662h-0.008v1.127c0,1.87-1.518,3.386-3.385,3.386c-1.868,0-3.385-1.516-3.385-3.386V45.117h0.008v-5.641
			c0-4.361,3.535-7.896,7.896-7.896H57.539z"/>
		<path fill="#F9C13C" d="M83.462,39.477v15.789c0,1.87,1.517,3.386,3.386,3.386c1.867,0,3.383-1.516,3.383-3.386V39.477
			c0-4.361-3.533-7.896-7.895-7.896l-15.228-0.005c1.546,1.875,2.556,4.214,2.782,6.773h12.445
			C82.961,38.349,83.462,38.852,83.462,39.477z"/>
		<path fill="#F9C13C" d="M0,55.266c0,1.87,1.516,3.386,3.383,3.386c1.869,0,3.386-1.516,3.386-3.386V39.477
			c0-0.625,0.505-1.128,1.127-1.128h12.47c0.227-2.56,1.235-4.898,2.783-6.773L7.896,31.58C3.534,31.58,0,35.115,0,39.477V55.266z"
			/>
		<path fill="#F9C13C" d="M45.115,0c7.472,0,13.534,6.062,13.534,13.533c0,7.473-6.063,13.537-13.534,13.537
			c-7.473,0-13.533-6.064-13.533-13.537C31.582,6.062,37.643,0,45.115,0z M45.115,6.769c-3.735,0-6.769,3.031-6.769,6.765
			c0,3.737,3.033,6.769,6.769,6.769c3.736,0,6.769-3.031,6.769-6.769C51.884,9.8,48.852,6.769,45.115,6.769z"/>
		<path fill="#F9C13C" d="M74.439,4.514c6.231,0,11.278,5.047,11.278,11.278c0,6.228-5.047,11.278-11.278,11.278
			c-6.229,0-11.277-5.051-11.277-11.278C63.162,9.561,68.21,4.514,74.439,4.514z M74.439,11.279c-2.494,0-4.512,2.019-4.512,4.513
			c0,2.491,2.018,4.51,4.512,4.51c2.492,0,4.511-2.019,4.511-4.51C78.95,13.298,76.932,11.279,74.439,11.279z"/>
		<path fill="#F9C13C" d="M15.79,4.514c6.231,0,11.278,5.047,11.278,11.278c0,6.228-5.047,11.278-11.278,11.278
			c-6.229,0-11.277-5.051-11.277-11.278C4.513,9.561,9.561,4.514,15.79,4.514z M15.79,11.279c-2.491,0-4.509,2.019-4.509,4.513
			c0,2.491,2.018,4.51,4.509,4.51c2.495,0,4.513-2.019,4.513-4.51C20.303,13.298,18.285,11.279,15.79,11.279z"/>
		<path fill="#F9C13C" d="M3.383,63.161C1.516,63.161,0,64.677,0,66.546V68.8c0,9.346,7.576,16.919,16.92,16.919h56.391
			c9.348,0,16.92-7.573,16.92-16.919v-2.254c0-1.869-1.516-3.385-3.383-3.385H3.383z M16.92,78.95c-5.227,0-9.525-3.947-10.09-9.023
			H83.4c-0.563,5.076-4.863,9.023-10.09,9.023H16.92z"/>
	</g>
</g>
</svg>
