<?xml version="1.0" encoding="utf-8"?>
<!-- Generator: Adobe Illustrator 15.0.0, SVG Export Plug-In  -->
<!DOCTYPE svg PUBLIC "-//W3C//DTD SVG 1.1//EN" "http://www.w3.org/Graphics/SVG/1.1/DTD/svg11.dtd" [
	<!ENTITY ns_flows "http://ns.adobe.com/Flows/1.0/">
]>
<svg version="1.1"
	 xmlns="http://www.w3.org/2000/svg" xmlns:xlink="http://www.w3.org/1999/xlink" xmlns:a="http://ns.adobe.com/AdobeSVGViewerExtensions/3.0/"
	 x="0px" y="0px" width="50px" height="50px" viewBox="-20.9 -23 128 128" enable-background="new -20.9 -23 128 128"
	 xml:space="preserve">
<defs>
</defs>
<path fill="#DE1F26" d="M55,30.2c4.2,0,7.5,3.4,7.5,7.5v14h0v1.1c0,1.8-1.4,3.2-3.2,3.2c-1.8,0-3.2-1.4-3.2-3.2v-9.7h0v-5.4
	c0-0.6-0.5-1.1-1.1-1.1H31.3c-0.6,0-1.1,0.5-1.1,1.1v14h0v1.1c0,1.8-1.4,3.2-3.2,3.2c-1.8,0-3.2-1.4-3.2-3.2v-9.7h0v-5.4
	c0-4.2,3.4-7.5,7.5-7.5H55z"/>
<path fill="#DE1F26" d="M79.8,37.7v15.1c0,1.8,1.4,3.2,3.2,3.2s3.2-1.4,3.2-3.2V37.7c0-4.2-3.4-7.5-7.5-7.5l-14.6,0
	c1.5,1.8,2.4,4,2.7,6.5h11.9C79.3,36.7,79.8,37.1,79.8,37.7z"/>
<path fill="#DE1F26" d="M0,52.8c0,1.8,1.4,3.2,3.2,3.2c1.8,0,3.2-1.4,3.2-3.2V37.7c0-0.6,0.5-1.1,1.1-1.1h11.9
	c0.2-2.4,1.2-4.7,2.7-6.5l-14.6,0c-4.2,0-7.5,3.4-7.5,7.5V52.8z"/>
<path fill="#DE1F26" d="M43.1,0c7.1,0,12.9,5.8,12.9,12.9s-5.8,12.9-12.9,12.9s-12.9-5.8-12.9-12.9S36,0,43.1,0z M43.1,6.5
	c-3.6,0-6.5,2.9-6.5,6.5c0,3.6,2.9,6.5,6.5,6.5s6.5-2.9,6.5-6.5C49.6,9.4,46.7,6.5,43.1,6.5z"/>
<path fill="#DE1F26" d="M71.2,4.3c6,0,10.8,4.8,10.8,10.8s-4.8,10.8-10.8,10.8c-6,0-10.8-4.8-10.8-10.8S65.2,4.3,71.2,4.3z
	 M71.2,10.8c-2.4,0-4.3,1.9-4.3,4.3s1.9,4.3,4.3,4.3c2.4,0,4.3-1.9,4.3-4.3S73.6,10.8,71.2,10.8z"/>
<path fill="#DE1F26" d="M15.1,4.3c6,0,10.8,4.8,10.8,10.8s-4.8,10.8-10.8,10.8c-6,0-10.8-4.8-10.8-10.8S9.1,4.3,15.1,4.3z
	 M15.1,10.8c-2.4,0-4.3,1.9-4.3,4.3s1.9,4.3,4.3,4.3c2.4,0,4.3-1.9,4.3-4.3S17.5,10.8,15.1,10.8z"/>
<path fill="#DE1F26" d="M3.2,60.4c-1.8,0-3.2,1.4-3.2,3.2v2.2C0,74.7,7.2,82,16.2,82h53.9c8.9,0,16.2-7.2,16.2-16.2v-2.2
	c0-1.8-1.4-3.2-3.2-3.2H3.2z M16.2,75.5c-5,0-9.1-3.8-9.6-8.6h73.2c-0.5,4.9-4.7,8.6-9.6,8.6H16.2z"/>
</svg>
