<?xml version="1.0" encoding="utf-8"?>
<!-- Generator: Adobe Illustrator 15.0.0, SVG Export Plug-In  -->
<!DOCTYPE svg PUBLIC "-//W3C//DTD SVG 1.1//EN" "http://www.w3.org/Graphics/SVG/1.1/DTD/svg11.dtd" [
	<!ENTITY ns_flows "http://ns.adobe.com/Flows/1.0/">
]>
<svg version="1.1"
	 xmlns="http://www.w3.org/2000/svg" xmlns:xlink="http://www.w3.org/1999/xlink" xmlns:a="http://ns.adobe.com/AdobeSVGViewerExtensions/3.0/"
	 x="0px" y="0px" width="35px" height="35px" viewBox="-28.312 -19.39 128 128" enable-background="new -28.312 -19.39 128 128"
	 xml:space="preserve">
<defs>
</defs>
<path fill="#9797A2" d="M63.942,0H7.435C3.331,0.005,0.004,3.332,0,7.436v77.325c0.003,2.463,1.999,4.458,4.461,4.46H55.02
	c2.463-0.002,4.458-1.997,4.461-4.46V56.507h7.436c2.462-0.003,4.458-1.999,4.461-4.46V7.436C71.373,3.332,68.046,0.005,63.942,0z
	 M56.507,56.507v28.254c-0.002,0.82-0.666,1.485-1.487,1.487H4.461c-0.82-0.002-1.485-0.667-1.487-1.487V19.056l3.222,2.034
	l4.709-2.974l4.708,2.974l4.708-2.974l4.709,2.974l4.708-2.974l4.71,2.974l4.708-2.974l4.71,2.974l4.708-2.974l4.711,2.974
	l3.223-2.034V56.507z M56.507,15.538l-3.223,2.034L48.573,14.6l-4.708,2.973l-4.71-2.973l-4.708,2.973l-4.71-2.973l-4.708,2.973
	L20.32,14.6l-4.708,2.973L10.904,14.6l-4.709,2.973l-3.222-2.034v-3.642h53.533V15.538z M56.507,7.436v1.486H2.974V7.436
	c0.004-2.463,1.999-4.458,4.461-4.461h50.563C57.028,4.26,56.505,5.826,56.507,7.436z M68.403,52.047
	c-0.002,0.819-0.667,1.485-1.487,1.485H59.48V7.436c0-2.464,1.997-4.461,4.462-4.461c2.463,0,4.461,1.997,4.461,4.461V52.047z"/>
<path fill="#9797A2" d="M13.383,25.279h-2.974c-2.463,0.004-4.458,1.998-4.461,4.461v2.975c0.003,2.463,1.998,4.458,4.461,4.461
	h2.974c2.463-0.003,4.459-1.998,4.461-4.461V29.74C17.842,27.277,15.846,25.283,13.383,25.279z M14.87,32.715
	c-0.002,0.82-0.666,1.485-1.487,1.486h-2.974c-0.82-0.001-1.486-0.666-1.486-1.486V29.74c0-0.82,0.666-1.484,1.486-1.486h2.974
	c0.821,0.002,1.485,0.666,1.487,1.486V32.715z"/>
<rect x="20.818" y="29.74" fill="#9797A2" width="20.818" height="2.975"/>
<path fill="#9797A2" d="M13.383,40.149h-2.974c-2.463,0.003-4.458,1.999-4.461,4.462v2.973c0.003,2.464,1.998,4.459,4.461,4.463
	h2.974c2.463-0.004,4.459-1.999,4.461-4.463v-2.973C17.842,42.148,15.846,40.152,13.383,40.149z M14.87,47.584
	c-0.002,0.821-0.666,1.486-1.487,1.487h-2.974c-0.82-0.001-1.486-0.666-1.486-1.487v-2.973c0-0.82,0.666-1.486,1.486-1.488h2.974
	c0.821,0.002,1.485,0.668,1.487,1.488V47.584z"/>
<rect x="20.818" y="44.611" fill="#9797A2" width="20.818" height="2.973"/>
<path fill="#9797A2" d="M13.383,55.02h-2.974c-2.463,0.004-4.458,1.999-4.461,4.462v2.974c0.003,2.463,1.998,4.458,4.461,4.462
	h2.974c2.463-0.004,4.459-1.999,4.461-4.462v-2.974C17.842,57.019,15.846,55.023,13.383,55.02z M14.87,62.455
	c-0.002,0.82-0.666,1.485-1.487,1.487h-2.974c-0.82-0.002-1.486-0.667-1.486-1.487v-2.974c0-0.821,0.666-1.485,1.486-1.487h2.974
	c0.821,0.002,1.485,0.666,1.487,1.487V62.455z"/>
<rect x="20.818" y="59.481" fill="#9797A2" width="20.818" height="2.974"/>
<path fill="#9797A2" d="M13.383,69.89h-2.974c-2.463,0.004-4.458,1.999-4.461,4.461v2.975c0.003,2.463,1.998,4.459,4.461,4.46h2.974
	c2.463-0.001,4.459-1.997,4.461-4.46v-2.975C17.842,71.889,15.846,69.894,13.383,69.89z M14.87,77.325
	c-0.002,0.821-0.666,1.485-1.487,1.487h-2.974c-0.82-0.002-1.486-0.666-1.486-1.487v-2.975c0-0.819,0.666-1.485,1.486-1.485h2.974
	c0.821,0,1.485,0.666,1.487,1.485V77.325z"/>
<rect x="20.818" y="74.351" fill="#9797A2" width="20.818" height="2.975"/>
<path fill="#9797A2" d="M49.071,22.306c-2.462,0.003-4.458,1.998-4.461,4.461v49.521l4.461,6.692l4.462-6.692V26.767
	C53.529,24.304,51.535,22.309,49.071,22.306z M50.559,75.388l-1.487,2.231l-1.486-2.231V32.715h2.974V75.388z M50.559,29.74h-2.974
	v-2.974c0-0.821,0.665-1.487,1.486-1.487s1.487,0.666,1.487,1.487V29.74z"/>
</svg>
