<?xml version="1.0" encoding="utf-8"?>
<!-- Generator: Adobe Illustrator 15.1.0, SVG Export Plug-In  -->
<!DOCTYPE svg PUBLIC "-//W3C//DTD SVG 1.1//EN" "http://www.w3.org/Graphics/SVG/1.1/DTD/svg11.dtd" [
	<!ENTITY ns_flows "http://ns.adobe.com/Flows/1.0/">
]>
<svg version="1.1"
	 xmlns="http://www.w3.org/2000/svg" xmlns:xlink="http://www.w3.org/1999/xlink" xmlns:a="http://ns.adobe.com/AdobeSVGViewerExtensions/3.0/"
	 x="0px" y="0px" width="35px" height="30px" viewBox="-19.645 -19.645 128 128" enable-background="new -19.645 -19.645 128 128"
	 xml:space="preserve">
<defs>
</defs>
<path fill="#24395F" d="M65.055,47.313h-5.914v11.828h5.914V47.313z M53.227,47.313h-5.914v11.828h5.914V47.313z M65.055,29.57
	h-5.914v11.828h5.914V29.57z M76.882,47.313h-5.913v11.828h5.913V47.313z M53.227,65.055h-5.914v11.828h5.914V65.055z M70.969,0
	h-5.914v11.828h5.914V0z M23.656,0h-5.914v11.828h5.914V0z M76.882,29.57h-5.913v11.828h5.913V29.57z M53.227,29.57h-5.914v11.828
	h5.914V29.57z M29.57,65.055h-5.914v11.828h5.914V65.055z M17.742,47.313h-5.914v11.828h5.914V47.313z M29.57,47.313h-5.914v11.828
	h5.914V47.313z M76.882,5.914v11.828H59.141V5.914H29.57v11.828H11.828V5.914H0v82.797h88.711V5.914H76.882z M82.796,82.797H5.915
	V23.656h76.881V82.797z M17.742,65.055h-5.914v11.828h5.914V65.055z M41.398,29.57h-5.914v11.828h5.914V29.57z M41.398,65.055
	h-5.914v11.828h5.914V65.055z M29.57,29.57h-5.914v11.828h5.914V29.57z M41.398,47.313h-5.914v11.828h5.914V47.313z M65.055,65.055
	h-5.914v11.828h5.914V65.055z"/>
</svg>
