<?xml version="1.0" encoding="utf-8"?>
<!-- Generator: Adobe Illustrator 15.0.0, SVG Export Plug-In  -->
<!DOCTYPE svg PUBLIC "-//W3C//DTD SVG 1.1//EN" "http://www.w3.org/Graphics/SVG/1.1/DTD/svg11.dtd" [
	<!ENTITY ns_flows "http://ns.adobe.com/Flows/1.0/">
]>
<svg version="1.1"
	 xmlns="http://www.w3.org/2000/svg" xmlns:xlink="http://www.w3.org/1999/xlink" xmlns:a="http://ns.adobe.com/AdobeSVGViewerExtensions/3.0/"
	 x="0px" y="0px" width="20px" height="20px" viewBox="-16.001 -16.001 128 128" enable-background="new -16.001 -16.001 128 128"
	 xml:space="preserve">
<defs>
</defs>
<path id="XMLID_1_" fill="#E4E3E3" d="M93.656,82.344L73.348,62.036C77.544,55.712,80,48.141,80,40C80,17.943,62.057,0,40,0
	S0,17.943,0,40s17.943,40,40,40c8.141,0,15.712-2.456,22.036-6.652l20.308,20.309c3.12,3.123,8.192,3.123,11.313,0
	C96.779,90.532,96.779,85.468,93.656,82.344z M12,40c0-15.439,12.561-28,28-28s28,12.561,28,28S55.439,68,40,68S12,55.439,12,40z"/>
</svg>
