<?xml version="1.0" encoding="utf-8"?>
<!-- Generator: Adobe Illustrator 15.0.0, SVG Export Plug-In  -->
<!DOCTYPE svg PUBLIC "-//W3C//DTD SVG 1.1//EN" "http://www.w3.org/Graphics/SVG/1.1/DTD/svg11.dtd" [
	<!ENTITY ns_flows "http://ns.adobe.com/Flows/1.0/">
]>
<svg version="1.1"
	 xmlns="http://www.w3.org/2000/svg" xmlns:xlink="http://www.w3.org/1999/xlink" xmlns:a="http://ns.adobe.com/AdobeSVGViewerExtensions/3.0/"
	 x="0px" y="0px" width="50px" height="50px" viewBox="-21.9 -12.6 128 128" enable-background="new -21.9 -12.6 128 128"
	 xml:space="preserve">
<defs>
</defs>
<path fill="#9797A2" d="M68,90.3H16.3c-1.2,0-2.2-1-2.2-2.2V14.4c0-1.2,1-2.2,2.2-2.2h13.9c1.2,0,2.2,1,2.2,2.2v59.2H68
	c1.2,0,2.2,1,2.2,2.2v12.2C70.2,89.3,69.2,90.3,68,90.3z M18.5,85.9h47.3V78H30.2c-1.2,0-2.2-1-2.2-2.2V16.6h-9.5V85.9L18.5,85.9z"
	/>
<path fill="#9797A2" d="M53.9,102.8H2.2c-1.2,0-2.2-1-2.2-2.2V27c0-1.2,1-2.2,2.2-2.2h13.9c1.2,0,2.2,1,2.2,2.2v59.2h35.6
	c1.2,0,2.2,1,2.2,2.2v12.2C56.1,101.9,55.1,102.8,53.9,102.8z M4.4,98.5h47.3v-7.9H16.1c-1.2,0-2.2-1-2.2-2.2V29.2H4.4V98.5
	L4.4,98.5z"/>
<path fill="#9797A2" d="M81.9,78H30.2c-1.2,0-2.2-1-2.2-2.2V2.2C28,1,29,0,30.2,0h51.7c1.2,0,2.2,1,2.2,2.2v73.7
	C84.1,77.1,83.1,78,81.9,78z M32.4,73.7h47.3V4.4H32.4V73.7z"/>
<path fill="#9797A2" d="M41,23.6c-0.6,0-1.2-0.3-1.7-0.8l-2.9-3.4c-0.8-0.9-0.7-2.3,0.3-3.1c0.9-0.8,2.3-0.7,3.1,0.3l1.5,1.8
	l7.1-5.7c0.9-0.8,2.3-0.6,3.1,0.3s0.6,2.3-0.3,3.1l-8.8,7C42,23.4,41.5,23.6,41,23.6z"/>
<path fill="#9797A2" d="M76.4,20.1H55.1c-1.2,0-2.2-1-2.2-2.2s1-2.2,2.2-2.2h21.2c1.2,0,2.2,1,2.2,2.2S77.6,20.1,76.4,20.1z"/>
<path fill="#9797A2" d="M64.8,26.9H54.6c-1.2,0-2.2-1-2.2-2.2c0-1.2,1-2.2,2.2-2.2h10.2c1.2,0,2.2,1,2.2,2.2
	C67,25.9,66,26.9,64.8,26.9z"/>
<path fill="#9797A2" d="M76.4,38.3H55.1c-1.2,0-2.2-1-2.2-2.2s1-2.2,2.2-2.2h21.2c1.2,0,2.2,1,2.2,2.2S77.6,38.3,76.4,38.3z"/>
<path fill="#9797A2" d="M64.8,45.2H54.6c-1.2,0-2.2-1-2.2-2.2c0-1.2,1-2.2,2.2-2.2h10.2c1.2,0,2.2,1,2.2,2.2
	C67,44.2,66,45.2,64.8,45.2z"/>
<path fill="#9797A2" d="M76.4,59.2H55.1c-1.2,0-2.2-1-2.2-2.2c0-1.2,1-2.2,2.2-2.2h21.2c1.2,0,2.2,1,2.2,2.2
	C78.6,58.2,77.6,59.2,76.4,59.2z"/>
<path fill="#9797A2" d="M64.8,66H54.6c-1.2,0-2.2-1-2.2-2.2s1-2.2,2.2-2.2h10.2c1.2,0,2.2,1,2.2,2.2S66,66,64.8,66z"/>
<path fill="#9797A2" d="M46.3,45.9h-8.8c-1.2,0-2.2-1-2.2-2.2v-8.3c0-1.2,1-2.2,2.2-2.2h8.8c1.2,0,2.2,1,2.2,2.2v8.3
	C48.5,44.9,47.6,45.9,46.3,45.9z M39.7,41.5h4.4v-3.9h-4.4V41.5z"/>
<path fill="#9797A2" d="M46.3,68.2h-8.8c-1.2,0-2.2-1-2.2-2.2v-8.3c0-1.2,1-2.2,2.2-2.2h8.8c1.2,0,2.2,1,2.2,2.2V66
	C48.5,67.2,47.6,68.2,46.3,68.2z M39.7,63.8h4.4v-3.9h-4.4V63.8z"/>
</svg>
