<?xml version="1.0" encoding="utf-8"?>
<!-- Generator: Adobe Illustrator 15.1.0, SVG Export Plug-In  -->
<!DOCTYPE svg PUBLIC "-//W3C//DTD SVG 1.1//EN" "http://www.w3.org/Graphics/SVG/1.1/DTD/svg11.dtd" [
	<!ENTITY ns_flows "http://ns.adobe.com/Flows/1.0/">
]>
<svg version="1.1"
	 xmlns="http://www.w3.org/2000/svg" xmlns:xlink="http://www.w3.org/1999/xlink" xmlns:a="http://ns.adobe.com/AdobeSVGViewerExtensions/3.0/"
	 x="0px" y="0px" width="50px" height="50px" viewBox="-22 -22.405 128 128" enable-background="new -22 -22.405 128 128"
	 xml:space="preserve">
<defs>
</defs>
<path fill="#DE1F26" stroke="#DE1F26" stroke-miterlimit="10" d="M32.4,30.973c-8.4,0-15.236-6.835-15.236-15.236S24,0.5,32.4,0.5
	c8.402,0,15.236,6.835,15.236,15.236S40.803,30.973,32.4,30.973z M32.4,4.5c-6.195,0-11.236,5.041-11.236,11.236
	S26.205,26.973,32.4,26.973s11.236-5.041,11.236-11.236S38.596,4.5,32.4,4.5z"/>
<path fill="#DE1F26" stroke="#DE1F26" stroke-miterlimit="10" d="M36.59,76.095H4.5V65.73c0-15.33,12.521-27.803,27.849-27.803
	c5.648,0,10.929,1.697,15.319,4.602c1.543-0.632,3.181-1.099,4.87-1.383c-5.49-4.509-12.553-7.219-20.195-7.219
	C14.81,33.928,0.5,48.194,0.5,65.73v14.364h39.041C38.418,79.095,37.43,77.095,36.59,76.095z"/>
<path fill="#DE1F26" d="M56.357,81.689c-1.258,0-2.514-0.131-3.746-0.391c-0.441-0.096-0.811-0.396-0.992-0.809l-2.148-4.869
	l-5.289,0.574c-0.447,0.048-0.891-0.121-1.193-0.457c-1.693-1.872-2.971-4.081-3.748-6.482c-0.139-0.43-0.064-0.899,0.203-1.265
	l3.145-4.295l-3.145-4.295c-0.268-0.364-0.342-0.834-0.203-1.264c0.777-2.403,2.055-4.612,3.748-6.485
	c0.303-0.334,0.746-0.504,1.193-0.454l5.289,0.573l2.148-4.867c0.182-0.414,0.551-0.715,0.992-0.809
	c2.471-0.521,5.021-0.521,7.494,0c0.441,0.094,0.811,0.395,0.992,0.809l2.146,4.867l5.289-0.573c0.447-0.05,0.893,0.12,1.195,0.454
	c1.691,1.873,2.969,4.082,3.746,6.485c0.141,0.43,0.063,0.899-0.205,1.264l-3.143,4.295l3.156,4.295
	c0.266,0.363,0.342,0.835,0.203,1.265c-0.777,2.401-2.053,4.61-3.748,6.482c-0.301,0.336-0.746,0.505-1.193,0.457l-5.287-0.574
	l-2.152,4.869c-0.182,0.412-0.551,0.713-0.994,0.809C58.879,81.559,57.619,81.689,56.357,81.689z M53.895,78.679
	c1.633,0.267,3.297,0.267,4.93,0l2.262-5.133c0.246-0.561,0.83-0.896,1.438-0.83l5.576,0.606c1.053-1.276,1.887-2.719,2.469-4.268
	l-3.316-4.531c-0.361-0.493-0.361-1.166,0-1.659l3.316-4.527c-0.582-1.548-1.416-2.99-2.469-4.267l-5.576,0.618
	c-0.607,0.065-1.191-0.271-1.438-0.833l-2.262-5.133c-1.633-0.264-3.297-0.264-4.93,0l-2.264,5.133
	c-0.246,0.562-0.826,0.898-1.436,0.833l-5.576-0.607c-1.053,1.276-1.887,2.719-2.469,4.268l3.316,4.526
	c0.361,0.494,0.361,1.166,0,1.659l-3.316,4.531c0.582,1.547,1.416,2.988,2.469,4.266l5.576-0.611
	c0.607-0.066,1.189,0.269,1.436,0.83L53.895,78.679z"/>
<path fill="#DE1F26" d="M56.357,71.405c-4.258,0-7.709-3.45-7.709-7.709c0-4.257,3.453-7.708,7.709-7.708
	c4.258,0,7.711,3.451,7.711,7.708C64.057,67.951,60.611,71.396,56.357,71.405z M56.357,58.798c-2.705,0-4.898,2.193-4.898,4.898
	c0,2.706,2.193,4.898,4.898,4.898c2.707,0,4.9-2.192,4.9-4.898C61.254,60.992,59.063,58.8,56.357,58.798L56.357,58.798z"/>
<path fill="#DE1F26" d="M73.365,50.998c-0.795,0.082-1.598,0.081-2.395-0.004c-0.285-0.031-0.537-0.196-0.678-0.445l-1.676-2.938
	l-3.307,0.709c-0.279,0.059-0.57-0.02-0.783-0.211c-1.191-1.073-2.143-2.386-2.791-3.854c-0.115-0.262-0.1-0.563,0.047-0.813
	l1.705-2.919l-2.266-2.509c-0.193-0.213-0.271-0.506-0.211-0.785c0.334-1.569,0.996-3.05,1.945-4.343
	c0.17-0.23,0.438-0.367,0.725-0.366l3.379,0.018l1.041-3.216c0.088-0.273,0.301-0.487,0.574-0.575
	c1.527-0.491,3.141-0.658,4.736-0.488c0.285,0.03,0.537,0.195,0.68,0.445l1.674,2.937l3.305-0.708
	c0.281-0.061,0.574,0.019,0.787,0.21c1.189,1.073,2.143,2.386,2.791,3.854c0.115,0.263,0.098,0.564-0.049,0.813l-1.705,2.919
	l2.273,2.508c0.193,0.214,0.271,0.507,0.213,0.786c-0.336,1.569-0.998,3.049-1.947,4.342c-0.168,0.231-0.439,0.368-0.725,0.367
	l-3.379-0.019l-1.043,3.219c-0.088,0.271-0.301,0.485-0.574,0.574C74.949,50.751,74.162,50.915,73.365,50.998z M71.611,49.255
	c1.051,0.063,2.102-0.046,3.115-0.321l1.098-3.391c0.117-0.371,0.465-0.622,0.854-0.619l3.563,0.02
	c0.582-0.875,1.016-1.841,1.283-2.857l-2.393-2.648c-0.26-0.288-0.305-0.713-0.107-1.048l1.801-3.077
	c-0.469-0.94-1.092-1.798-1.84-2.536l-3.482,0.755c-0.381,0.08-0.771-0.095-0.963-0.435l-1.766-3.096
	c-1.049-0.06-2.1,0.049-3.115,0.321l-1.096,3.392c-0.119,0.371-0.463,0.622-0.854,0.621l-3.564-0.021
	c-0.582,0.876-1.014,1.842-1.281,2.859l2.393,2.645c0.26,0.289,0.305,0.713,0.107,1.048l-1.801,3.081
	c0.469,0.939,1.09,1.796,1.838,2.534l3.484-0.749c0.381-0.082,0.77,0.091,0.963,0.43L71.611,49.255z"/>
<path fill="#DE1F26" d="M72.695,44.498c-2.691,0.277-5.098-1.677-5.377-4.37c-0.277-2.689,1.68-5.097,4.371-5.374
	c2.691-0.278,5.098,1.679,5.375,4.368C77.336,41.813,75.383,44.214,72.695,44.498z M71.873,36.529
	c-1.711,0.177-2.953,1.706-2.777,3.416c0.176,1.709,1.705,2.953,3.416,2.777c1.709-0.177,2.953-1.707,2.777-3.417
	C75.111,37.598,73.582,36.354,71.873,36.529L71.873,36.529z"/>
</svg>
