<?xml version="1.0" encoding="utf-8"?>
<!-- Generator: Adobe Illustrator 15.0.0, SVG Export Plug-In  -->
<!DOCTYPE svg PUBLIC "-//W3C//DTD SVG 1.1//EN" "http://www.w3.org/Graphics/SVG/1.1/DTD/svg11.dtd" [
	<!ENTITY ns_flows "http://ns.adobe.com/Flows/1.0/">
]>
<svg version="1.1"
	 xmlns="http://www.w3.org/2000/svg" xmlns:xlink="http://www.w3.org/1999/xlink" xmlns:a="http://ns.adobe.com/AdobeSVGViewerExtensions/3.0/"
	 x="0px" y="0px" width="50px" height="50px" viewBox="-10.281 -15.015 128 128" enable-background="new -10.281 -15.015 128 128"
	 xml:space="preserve">
<defs>
</defs>
<g>
	<g>
		<g>
			<g>
				<path fill="#9797A2" d="M30.956,66.036c-2.27,0-4.531-0.236-6.752-0.705c-0.592-0.125-1.088-0.529-1.332-1.084l-4.164-9.43
					L8.456,55.919c-0.602,0.064-1.198-0.164-1.604-0.613c-3.055-3.377-5.359-7.361-6.76-11.695c-0.188-0.574-0.087-1.205,0.27-1.693
					l6.101-8.332l-6.101-8.328c-0.357-0.49-0.457-1.121-0.27-1.697c1.401-4.332,3.706-8.316,6.76-11.691
					c0.402-0.457,0.998-0.689,1.604-0.629l10.255,1.115l4.164-9.428c0.245-0.557,0.742-0.959,1.336-1.084
					c4.451-0.938,9.048-0.938,13.499,0c0.594,0.125,1.091,0.527,1.336,1.084l4.164,9.443l10.252-1.115
					c0.605-0.063,1.203,0.172,1.606,0.629c3.053,3.377,5.356,7.361,6.76,11.691c0.187,0.576,0.086,1.207-0.272,1.697l-6.098,8.328
					l6.094,8.332c0.357,0.488,0.459,1.119,0.273,1.693c-1.403,4.332-3.706,8.318-6.76,11.695c-0.406,0.451-1.004,0.68-1.606,0.613
					l-10.253-1.117l-4.164,9.43c-0.244,0.555-0.742,0.959-1.336,1.084C35.487,65.8,33.224,66.036,30.956,66.036z M25.927,61.823
					c3.327,0.584,6.73,0.584,10.057,0l4.326-9.805c0.33-0.754,1.111-1.205,1.929-1.115l10.648,1.158
					c2.18-2.582,3.882-5.533,5.029-8.711l-6.321-8.646c-0.485-0.664-0.485-1.564,0-2.229l6.334-8.648
					c-1.146-3.18-2.85-6.131-5.029-8.713l-10.648,1.156c-0.816,0.09-1.598-0.359-1.93-1.113l-4.334-9.809
					c-3.326-0.584-6.73-0.584-10.057,0l-4.322,9.807c-0.332,0.752-1.113,1.201-1.93,1.111L9.03,15.11
					c-2.182,2.582-3.885,5.531-5.027,8.713l6.328,8.648c0.486,0.664,0.486,1.566,0,2.229l-6.345,8.65
					c1.145,3.18,2.847,6.131,5.028,8.711l10.648-1.158c0.818-0.09,1.599,0.361,1.93,1.115L25.927,61.823z"/>
			</g>
		</g>
		<g>
			<g>
				<path fill="#9797A2" d="M30.956,47.087c-7.465,0-13.516-6.051-13.516-13.514c0-7.465,6.051-13.516,13.516-13.516
					c7.464,0,13.514,6.051,13.514,13.516C44.47,41.036,38.42,47.087,30.956,47.087L30.956,47.087z M30.956,23.858
					c-5.381,0-9.743,4.361-9.743,9.742s4.362,9.744,9.743,9.744s9.742-4.363,9.742-9.744c0-0.006,0-0.01,0-0.016
					C40.69,28.21,36.331,23.858,30.956,23.858L30.956,23.858z"/>
			</g>
		</g>
		<g>
			<g>
				<path fill="#9797A2" d="M84.369,48.31c-1.689,0-3.375-0.176-5.028-0.525c-0.594-0.125-1.091-0.529-1.336-1.084l-2.882-6.537
					l-7.097,0.773c-0.604,0.061-1.201-0.174-1.603-0.629c-2.273-2.512-3.987-5.479-5.029-8.703
					c-0.186-0.576-0.084-1.205,0.273-1.693l4.218-5.764l-4.218-5.764c-0.359-0.49-0.46-1.121-0.273-1.697
					c1.043-3.225,2.757-6.191,5.029-8.703c0.405-0.449,1.001-0.676,1.603-0.609l7.097,0.77l2.882-6.535
					c0.245-0.555,0.742-0.959,1.336-1.084c3.315-0.699,6.741-0.699,10.057,0c0.593,0.127,1.089,0.529,1.333,1.084l2.883,6.535
					l7.096-0.77c0.603-0.068,1.2,0.16,1.606,0.609c2.271,2.514,3.985,5.479,5.029,8.703c0.188,0.576,0.086,1.207-0.271,1.697
					l-4.222,5.764l4.222,5.764c0.355,0.488,0.457,1.119,0.271,1.693c-1.043,3.225-2.757,6.189-5.029,8.703
					c-0.402,0.457-1,0.691-1.606,0.629l-7.096-0.773L90.73,46.7c-0.244,0.555-0.74,0.959-1.333,1.084
					C87.744,48.134,86.06,48.31,84.369,48.31z M81.058,44.269c2.189,0.357,4.425,0.357,6.614,0l3.04-6.891
					c0.331-0.75,1.11-1.199,1.926-1.111l7.483,0.814c1.412-1.715,2.531-3.65,3.313-5.729l-4.447-6.076
					c-0.485-0.664-0.485-1.566,0-2.229l4.451-6.08c-0.781-2.076-1.9-4.01-3.313-5.723l-7.482,0.811
					c-0.816,0.088-1.595-0.361-1.926-1.111l-3.04-6.891c-2.19-0.355-4.425-0.355-6.615,0l-3.037,6.891
					c-0.331,0.75-1.112,1.201-1.929,1.111l-7.483-0.811c-1.411,1.713-2.531,3.646-3.313,5.723l4.443,6.08
					c0.486,0.662,0.486,1.564,0,2.229l-4.45,6.076c0.782,2.078,1.902,4.014,3.313,5.729l7.49-0.807
					c0.816-0.088,1.598,0.361,1.929,1.113L81.058,44.269z"/>
			</g>
		</g>
		<g>
			<g>
				<path fill="#9797A2" d="M84.369,34.509c-5.714,0.002-10.348-4.629-10.35-10.344c-0.002-5.713,4.629-10.348,10.344-10.35
					c5.715,0,10.348,4.631,10.35,10.344c0,0.002,0,0.002,0,0.004C94.699,29.87,90.077,34.493,84.369,34.509z M84.369,17.587
					c-3.631,0-6.576,2.941-6.578,6.572c-0.001,3.631,2.941,6.576,6.572,6.578s6.576-2.939,6.578-6.572v-0.002
					C90.938,20.534,87.998,17.593,84.369,17.587L84.369,17.587z"/>
			</g>
		</g>
		<g>
			<g>
				<path fill="#9797A2" d="M65.886,97.972c-1.689,0-3.375-0.176-5.028-0.525c-0.593-0.127-1.088-0.531-1.332-1.086l-2.883-6.533
					l-7.097,0.77c-0.602,0.064-1.197-0.162-1.604-0.613c-2.271-2.512-3.986-5.477-5.028-8.699c-0.188-0.576-0.087-1.207,0.271-1.697
					l4.221-5.764l-4.221-5.764c-0.357-0.49-0.458-1.121-0.271-1.697c1.042-3.225,2.757-6.189,5.028-8.703
					c0.406-0.449,1.002-0.676,1.604-0.609l7.097,0.77l2.883-6.533c0.244-0.555,0.739-0.959,1.332-1.084
					c3.315-0.699,6.74-0.699,10.057,0c0.594,0.125,1.089,0.529,1.333,1.084l2.882,6.533l7.097-0.77
					c0.602-0.066,1.197,0.16,1.604,0.609c2.272,2.514,3.986,5.479,5.028,8.703c0.188,0.576,0.085,1.207-0.273,1.697l-4.218,5.764
					l4.233,5.764c0.358,0.488,0.461,1.121,0.274,1.697c-1.043,3.223-2.757,6.188-5.029,8.699c-0.405,0.451-1.002,0.678-1.603,0.613
					l-7.097-0.77l-2.889,6.533c-0.244,0.555-0.74,0.959-1.333,1.086C69.268,97.796,67.579,97.972,65.886,97.972z M62.579,93.931
					c2.191,0.357,4.426,0.357,6.616,0l3.036-6.889c0.331-0.752,1.112-1.203,1.93-1.115l7.483,0.814
					c1.412-1.713,2.531-3.648,3.313-5.727l-4.45-6.082c-0.485-0.662-0.485-1.564,0-2.227l4.45-6.076
					c-0.781-2.078-1.9-4.014-3.313-5.727l-7.483,0.83c-0.817,0.088-1.599-0.363-1.93-1.117l-3.036-6.889
					c-2.19-0.355-4.425-0.355-6.616,0l-3.036,6.889c-0.331,0.754-1.111,1.205-1.929,1.117l-7.484-0.814
					c-1.412,1.713-2.531,3.648-3.313,5.727l4.451,6.074c0.486,0.664,0.486,1.566,0,2.229l-4.451,6.08
					c0.781,2.076,1.9,4.012,3.313,5.725l7.484-0.82c0.816-0.088,1.598,0.361,1.929,1.113L62.579,93.931z"/>
			</g>
		</g>
		<g>
			<g>
				<path fill="#9797A2" d="M65.886,84.169c-5.715,0-10.347-4.631-10.347-10.346c0-5.713,4.633-10.346,10.347-10.346
					s10.347,4.633,10.347,10.346C76.219,79.532,71.595,84.155,65.886,84.169z M65.886,67.249c-3.631,0-6.574,2.943-6.574,6.574
					s2.943,6.574,6.574,6.574s6.575-2.943,6.575-6.574C72.457,70.194,69.516,67.251,65.886,67.249L65.886,67.249z"/>
			</g>
		</g>
	</g>
</g>
</svg>
