<?xml version="1.0" encoding="utf-8"?>
<!-- Generator: Adobe Illustrator 15.0.0, SVG Export Plug-In  -->
<!DOCTYPE svg PUBLIC "-//W3C//DTD SVG 1.1//EN" "http://www.w3.org/Graphics/SVG/1.1/DTD/svg11.dtd" [
	<!ENTITY ns_flows "http://ns.adobe.com/Flows/1.0/">
]>
<svg version="1.1"
	 xmlns="http://www.w3.org/2000/svg" xmlns:xlink="http://www.w3.org/1999/xlink" xmlns:a="http://ns.adobe.com/AdobeSVGViewerExtensions/3.0/"
	 x="0px" y="0px" width="40px" height="30px" viewBox="-22.361 -19.238 128 128" enable-background="new -22.361 -19.238 128 128"
	 xml:space="preserve">
<defs>
</defs>
<g id="layer1_2_">
	<g>
		<g>
			<path fill="#9797A2" d="M83.277,89.523H0V4.16h83.277V89.523z M4,85.523h75.277V8.16H4V85.523z"/>
		</g>
		<g>
			<rect x="2" y="21.443" fill="#9797A2" width="79.277" height="4"/>
		</g>
		<g>
			<path fill="#9797A2" d="M25.309,46.158H9.088V30.684h16.221V46.158z M13.088,42.158h8.221v-7.475h-8.221V42.158z"/>
		</g>
		<g>
			<path fill="#9797A2" d="M25.309,70.598H9.088V55.123h16.221V70.598z M13.088,66.598h8.221v-7.475h-8.221V66.598z"/>
		</g>
		<g>
			<path fill="#9797A2" d="M49.748,46.158H33.529V30.684h16.219V46.158z M37.529,42.158h8.219v-7.475h-8.219V42.158z"/>
		</g>
		<g>
			<path fill="#9797A2" d="M49.748,70.598H33.529V55.123h16.219V70.598z M37.529,66.598h8.219v-7.475h-8.219V66.598z"/>
		</g>
		<g>
			<path fill="#9797A2" d="M74.188,46.158H57.967V30.684h16.221V46.158z M61.967,42.158h8.221v-7.475h-8.221V42.158z"/>
		</g>
		<g>
			<path fill="#9797A2" d="M74.188,70.598H57.967V55.123h16.221V70.598z M61.967,66.598h8.221v-7.475h-8.221V66.598z"/>
		</g>
		<g>
			<rect x="9.896" y="76.285" fill="#9797A2" width="63.482" height="4"/>
		</g>
		<g>
			
				<rect x="13.623" y="1.104" transform="matrix(0.0243 0.9997 -0.9997 0.0243 19.3762 -13.6457)" fill="#9797A2" width="6.111" height="3.999"/>
		</g>
		<g>
			<rect x="62.289" y="0.049" fill="#9797A2" width="4" height="6.111"/>
		</g>
	</g>
</g>
</svg>
