<?xml version="1.0" encoding="utf-8"?>
<!-- Generator: Adobe Illustrator 15.0.0, SVG Export Plug-In  -->
<!DOCTYPE svg PUBLIC "-//W3C//DTD SVG 1.1//EN" "http://www.w3.org/Graphics/SVG/1.1/DTD/svg11.dtd" [
	<!ENTITY ns_flows "http://ns.adobe.com/Flows/1.0/">
]>
<svg version="1.1"
	 xmlns="http://www.w3.org/2000/svg" xmlns:xlink="http://www.w3.org/1999/xlink" xmlns:a="http://ns.adobe.com/AdobeSVGViewerExtensions/3.0/"
	 x="0px" y="0px" width="20px" height="20px" viewBox="-19.808 -14.897 128 128" enable-background="new -19.808 -14.897 128 128"
	 xml:space="preserve">
<defs>
</defs>
<path fill="#FFFFFF" d="M67.305,26.536c-0.93-0.925-2.2-1.391-3.472-1.391c-1.271,0-2.541,0.466-3.472,1.391l-11.259,11.26V4.91
	c0-2.709-2.201-4.91-4.91-4.91s-4.91,2.201-4.91,4.91v32.886l-11.26-11.26c-0.93-0.925-2.157-1.438-3.471-1.438
	c-1.314,0-2.542,0.514-3.473,1.438c-1.918,1.914-1.918,5.025,0,6.943l23.113,22.988l23.122-22.997
	C69.224,31.571,69.224,28.45,67.305,26.536z"/>
<path fill="#FFFFFF" d="M88.317,68.743c0-0.518-0.019-1.035-0.187-1.553L78.31,37.729c-0.666-2.005-2.536-3.356-4.655-3.356H72.58
	c-0.461,0.92-1.036,1.808-1.804,2.579l-7.278,7.241h6.617l8.19,24.551H10.089l8.181-24.551h6.617l-7.279-7.241
	c-0.767-0.771-1.342-1.659-1.803-2.579H14.73c-2.119,0-3.989,1.352-4.656,3.356L0.254,67.19c-0.168,0.518-0.187,1.035-0.187,1.553
	C0,68.743,0,93.295,0,93.295c0,2.714,2.196,4.91,4.91,4.91h78.564c2.714,0,4.91-2.196,4.91-4.91
	C88.385,93.295,88.385,68.743,88.317,68.743z"/>
</svg>
