<?xml version="1.0" encoding="utf-8"?>
<!-- Generator: Adobe Illustrator 15.0.0, SVG Export Plug-In  -->
<!DOCTYPE svg PUBLIC "-//W3C//DTD SVG 1.1//EN" "http://www.w3.org/Graphics/SVG/1.1/DTD/svg11.dtd" [
	<!ENTITY ns_flows "http://ns.adobe.com/Flows/1.0/">
]>
<svg version="1.1"
	 xmlns="http://www.w3.org/2000/svg" xmlns:xlink="http://www.w3.org/1999/xlink" xmlns:a="http://ns.adobe.com/AdobeSVGViewerExtensions/3.0/"
	 x="0px" y="0px" width="20px" height="20px" viewBox="-18.279 -18.279 128 128" enable-background="new -18.279 -18.279 128 128"
	 xml:space="preserve">
<defs>
</defs>
<circle fill="#E02E34" cx="45.721" cy="45.721" r="45.721"/>
<path fill-rule="evenodd" clip-rule="evenodd" fill="#FFFFFF" d="M60.172,45.404c0,0.221,0,0.443,0,0.666
	c-0.256,2.384-1.648,3.479-3.105,4.937c-3.371,3.371-6.736,6.792-10.098,10.153c-1.699,1.698-3.287,3.287-5.049,5.048
	c-0.857,0.857-1.658,1.88-2.551,2.496c-3.342,2.308-8.002-0.189-8.1-3.883c0-0.259,0-0.518,0-0.777
	c0.443-2.958,2.709-4.429,4.549-6.269c3.998-3.999,7.951-8.125,11.928-11.983c-3.889-3.962-7.877-8.042-11.928-12.095
	c-1.836-1.835-4.07-3.251-4.549-6.268c0-0.26,0-0.519,0-0.777c0.283-3.54,4.227-6.042,7.654-4.16
	c0.939,0.514,1.779,1.555,2.664,2.44c5.191,5.192,10.277,10.333,15.422,15.479C58.453,41.853,59.934,43.04,60.172,45.404z"/>
</svg>
