<?xml version="1.0" encoding="utf-8"?>
<!-- Generator: Adobe Illustrator 15.0.0, SVG Export Plug-In  -->
<!DOCTYPE svg PUBLIC "-//W3C//DTD SVG 1.1//EN" "http://www.w3.org/Graphics/SVG/1.1/DTD/svg11.dtd" [
	<!ENTITY ns_flows "http://ns.adobe.com/Flows/1.0/">
]>
<svg version="1.1"
	 xmlns="http://www.w3.org/2000/svg" xmlns:xlink="http://www.w3.org/1999/xlink" xmlns:a="http://ns.adobe.com/AdobeSVGViewerExtensions/3.0/"
	 x="0px" y="0px" width="35px" height="35px" viewBox="-20.399 -20.399 128 128" enable-background="new -20.399 -20.399 128 128"
	 xml:space="preserve">
<defs>
</defs>
<g>
	<g>
		<path fill="#1e7eae" d="M72.313,5.626H30.916C28.347,2.218,24.278,0,19.69,0C11.936,0,5.627,6.31,5.627,14.064v7.033l0,0v0.001
			c0,2.942,2.277,5.336,5.159,5.578c0.738,1.568,1.87,2.912,3.278,3.896v0.73l-9.054,2.716C2.014,34.917,0,37.625,0,40.754v9.879
			h22.503v36.568h64.698V20.515L72.313,5.626z M73.137,10.428l9.262,9.263h-9.262V10.428z M29.535,22.503v-3.828
			c0.837,0.488,1.407,1.385,1.407,2.422c0,1.061-0.596,1.973-1.465,2.453C29.515,23.205,29.535,22.856,29.535,22.503z M19.69,2.813
			c6.204,0,11.252,5.048,11.252,11.251v2.189c-0.831-0.484-1.783-0.782-2.813-0.782c-2.482,0-4.885-0.729-6.949-2.104l-1.49-0.993
			l-1.489,0.993c-2.065,1.376-4.468,2.104-6.949,2.104c-1.029,0-1.981,0.298-2.813,0.784v-2.19
			C8.438,7.861,13.486,2.813,19.69,2.813z M8.438,21.099c0-1.037,0.569-1.935,1.406-2.422v3.827c0,0.354,0.021,0.704,0.058,1.046
			C9.034,23.072,8.438,22.158,8.438,21.099z M12.658,22.503v-4.291c2.508-0.23,4.915-1.062,7.032-2.458
			c2.117,1.396,4.526,2.228,7.032,2.458v4.291c0,3.877-3.155,7.033-7.032,7.033S12.658,26.381,12.658,22.503z M19.69,35.63
			l-2.763-3.683c0.879,0.257,1.805,0.402,2.763,0.402c0.959,0,1.885-0.145,2.762-0.402L19.69,35.63z M24.445,33.979l2.855,0.857
			l-3.55,6.209l-2.302-3.07L24.445,33.979z M14.936,33.979l2.997,3.996l-2.302,3.07l-3.55-6.211L14.936,33.979z M2.813,40.754
			c0-1.877,1.207-3.502,3.006-4.041l3.497-1.05l5.996,10.493l4.378-5.837l4.379,5.838l5.996-10.492l3.496,1.049
			c1.799,0.538,3.007,2.162,3.007,4.04v7.066h-5.626v-5.626H28.13v5.626H11.252v-5.626H8.438v5.626H2.813V40.754z M25.316,84.388
			V50.633h14.064v-9.879c0-3.129-2.014-5.836-5.011-6.736l-9.054-2.716v-0.73c1.408-0.984,2.541-2.328,3.278-3.896
			c2.882-0.242,5.161-2.637,5.161-5.579v-7.033c0-2-0.427-3.901-1.184-5.625h37.751v14.064h14.064v61.884H25.316z"/>
		<path fill="#1e7eae" d="M67.143,57.209l1.362-1.362l-1.989-1.989l-1.362,1.362c-2.425-1.984-5.522-3.181-8.895-3.181
			s-6.47,1.196-8.896,3.181l-1.361-1.362l-1.989,1.989l1.362,1.362c-1.985,2.425-3.182,5.522-3.182,8.895
			c0,3.373,1.196,6.471,3.182,8.896l-1.362,1.361l1.989,1.989l1.361-1.362c2.426,1.985,5.523,3.181,8.896,3.181
			s6.47-1.195,8.895-3.181l1.362,1.362l1.989-1.989L67.143,75c1.984-2.426,3.181-5.523,3.181-8.896
			C70.323,62.731,69.127,59.634,67.143,57.209z M56.259,54.853c2.596,0,4.981,0.891,6.89,2.374l-6.89,6.89l-6.89-6.89
			C51.277,55.743,53.663,54.853,56.259,54.853z M45.008,66.104c0-2.596,0.891-4.981,2.374-6.889l6.888,6.889l-6.888,6.89
			C45.898,71.085,45.008,68.7,45.008,66.104z M56.259,77.356c-2.596,0-4.981-0.893-6.89-2.375l6.89-6.889l6.89,6.889
			C61.24,76.464,58.854,77.356,56.259,77.356z M58.247,66.104l6.89-6.889c1.482,1.907,2.374,4.293,2.374,6.889
			c0,2.597-0.892,4.981-2.374,6.89L58.247,66.104z"/>
		<path fill="#1e7eae" d="M69.911,26.311l-1.988-1.989l-1.331,1.331c-2.572-2.793-6.246-4.556-10.333-4.556
			c-7.755,0-14.065,6.309-14.065,14.064c0,7.755,6.311,14.066,14.065,14.066c7.756,0,14.064-6.311,14.064-14.066
			c0-2.648-0.749-5.118-2.026-7.236L69.911,26.311z M67.511,35.162c0,6.204-5.048,11.251-11.252,11.251s-11.251-5.047-11.251-11.251
			c0-6.204,5.047-11.251,11.251-11.251c3.311,0,6.283,1.447,8.345,3.731l-9.752,9.75l-4.631-4.631l-1.988,1.989l6.619,6.62
			l11.386-11.385C67.046,31.536,67.511,33.293,67.511,35.162z"/>
		<path fill="#1e7eae" d="M77.356,46.413c-2.327,0-4.22,1.893-4.22,4.22s1.893,4.22,4.22,4.22c2.326,0,4.218-1.893,4.218-4.22
			S79.683,46.413,77.356,46.413z M77.356,52.039c-0.775,0-1.407-0.632-1.407-1.406s0.632-1.405,1.407-1.405
			c0.774,0,1.406,0.631,1.406,1.405S78.131,52.039,77.356,52.039z"/>
		<rect x="75.949" y="40.788" fill="#1e7eae" width="2.813" height="2.813"/>
		<rect x="75.949" y="35.162" fill="#1e7eae" width="2.813" height="2.813"/>
		<rect x="75.949" y="29.536" fill="#1e7eae" width="2.813" height="2.813"/>
		<rect x="75.949" y="68.917" fill="#1e7eae" width="2.813" height="2.813"/>
		<rect x="75.949" y="63.292" fill="#1e7eae" width="2.813" height="2.812"/>
		<rect x="75.949" y="57.666" fill="#1e7eae" width="2.813" height="2.813"/>
	</g>
</g>
</svg>
