<?xml version="1.0" encoding="utf-8"?>
<!-- Generator: Adobe Illustrator 15.1.0, SVG Export Plug-In  -->
<!DOCTYPE svg PUBLIC "-//W3C//DTD SVG 1.1//EN" "http://www.w3.org/Graphics/SVG/1.1/DTD/svg11.dtd" [
	<!ENTITY ns_flows "http://ns.adobe.com/Flows/1.0/">
]>
<svg version="1.1"
	 xmlns="http://www.w3.org/2000/svg" xmlns:xlink="http://www.w3.org/1999/xlink" xmlns:a="http://ns.adobe.com/AdobeSVGViewerExtensions/3.0/"
	 x="0px" y="0px" width="35px" height="35px" viewBox="-21.94 -12.584 128 128" enable-background="new -21.94 -12.584 128 128"
	 xml:space="preserve">
<defs>
</defs>
<g>
	<g>
		<g>
			<path fill="#24395F" d="M68,90.281H16.302c-1.209,0-2.19-0.981-2.19-2.19V14.426c0-1.21,0.981-2.19,2.19-2.19H30.23
				c1.209,0,2.189,0.98,2.189,2.19v59.239H68c1.21,0,2.19,0.98,2.19,2.19v12.235C70.19,89.3,69.21,90.281,68,90.281z M18.492,85.9
				h47.318v-7.854H30.23c-1.21,0-2.19-0.981-2.19-2.19v-59.24h-9.548V85.9L18.492,85.9z"/>
		</g>
		<g>
			<path fill="#24395F" d="M53.889,102.832H2.19c-1.209,0-2.19-0.981-2.19-2.19V26.977c0-1.21,0.981-2.19,2.19-2.19h13.929
				c1.209,0,2.189,0.98,2.189,2.19v59.239h35.58c1.21,0,2.19,0.98,2.19,2.19v12.235C56.079,101.851,55.099,102.832,53.889,102.832z
				 M4.381,98.451h47.318v-7.854h-35.58c-1.21,0-2.19-0.981-2.19-2.19v-59.24H4.381V98.451L4.381,98.451z"/>
		</g>
		<g>
			<path fill="#24395F" d="M81.929,78.046H30.23c-1.21,0-2.19-0.981-2.19-2.19V2.189C28.04,0.98,29.021,0,30.23,0h51.698
				c1.21,0,2.19,0.98,2.19,2.189v73.666C84.119,77.064,83.139,78.046,81.929,78.046z M32.42,73.665h47.318V4.381H32.42V73.665z"/>
		</g>
		<g>
			<path fill="#24395F" d="M41.044,23.583c-0.626,0-1.247-0.268-1.68-0.784L36.5,19.381c-0.777-0.928-0.655-2.309,0.272-3.086
				c0.927-0.777,2.309-0.654,3.085,0.272l1.489,1.777l7.104-5.685c0.945-0.756,2.323-0.602,3.079,0.343s0.603,2.323-0.343,3.079
				l-8.776,7.021C42.008,23.426,41.524,23.583,41.044,23.583z"/>
		</g>
		<g>
			<path fill="#24395F" d="M76.375,20.072H55.129c-1.209,0-2.19-0.98-2.19-2.19s0.981-2.19,2.19-2.19h21.246
				c1.209,0,2.189,0.98,2.189,2.19S77.584,20.072,76.375,20.072z"/>
		</g>
		<g>
			<path fill="#24395F" d="M64.766,26.902H54.581c-1.209,0-2.19-0.98-2.19-2.189c0-1.21,0.981-2.19,2.19-2.19h10.185
				c1.21,0,2.19,0.98,2.19,2.19C66.956,25.922,65.976,26.902,64.766,26.902z"/>
		</g>
		<g>
			<path fill="#24395F" d="M76.375,38.346H55.129c-1.209,0-2.19-0.98-2.19-2.19s0.981-2.19,2.19-2.19h21.246
				c1.209,0,2.189,0.98,2.189,2.19S77.584,38.346,76.375,38.346z"/>
		</g>
		<g>
			<path fill="#24395F" d="M64.766,45.176H54.581c-1.209,0-2.19-0.98-2.19-2.189c0-1.21,0.981-2.191,2.19-2.191h10.185
				c1.21,0,2.19,0.981,2.19,2.191C66.956,44.195,65.976,45.176,64.766,45.176z"/>
		</g>
		<g>
			<path fill="#24395F" d="M76.375,59.169H55.129c-1.209,0-2.19-0.98-2.19-2.19c0-1.209,0.981-2.189,2.19-2.189h21.246
				c1.209,0,2.189,0.98,2.189,2.189C78.564,58.188,77.584,59.169,76.375,59.169z"/>
		</g>
		<g>
			<path fill="#24395F" d="M64.766,66H54.581c-1.209,0-2.19-0.98-2.19-2.19s0.981-2.19,2.19-2.19h10.185c1.21,0,2.19,0.98,2.19,2.19
				S65.976,66,64.766,66z"/>
		</g>
		<g>
			<path fill="#24395F" d="M46.346,45.904h-8.79c-1.21,0-2.19-0.98-2.19-2.189v-8.289c0-1.209,0.98-2.189,2.19-2.189h8.79
				c1.209,0,2.19,0.98,2.19,2.189v8.289C48.536,44.924,47.556,45.904,46.346,45.904z M39.746,41.523h4.409v-3.906h-4.409V41.523z"/>
		</g>
		<g>
			<path fill="#24395F" d="M46.346,68.189h-8.79c-1.21,0-2.19-0.98-2.19-2.189v-8.288c0-1.21,0.98-2.19,2.19-2.19h8.79
				c1.209,0,2.19,0.98,2.19,2.19V66C48.536,67.209,47.556,68.189,46.346,68.189z M39.746,63.81h4.409v-3.907h-4.409V63.81z"/>
		</g>
	</g>
</g>
</svg>
