<?xml version="1.0" encoding="utf-8"?>
<!-- Generator: Adobe Illustrator 15.0.0, SVG Export Plug-In  -->
<!DOCTYPE svg PUBLIC "-//W3C//DTD SVG 1.1//EN" "http://www.w3.org/Graphics/SVG/1.1/DTD/svg11.dtd" [
	<!ENTITY ns_flows "http://ns.adobe.com/Flows/1.0/">
]>
<svg version="1.1"
	 xmlns="http://www.w3.org/2000/svg" xmlns:xlink="http://www.w3.org/1999/xlink" xmlns:a="http://ns.adobe.com/AdobeSVGViewerExtensions/3.0/"
	 x="0px" y="0px" width="35px" height="35px" viewBox="-10.281 -15.014 128 128" enable-background="new -10.281 -15.014 128 128"
	 xml:space="preserve">
<defs>
</defs>
<path fill="#1e7eae" d="M30.956,66.036c-2.269,0-4.531-0.236-6.751-0.704c-0.592-0.126-1.088-0.53-1.333-1.084l-4.165-9.43
	L8.456,55.918c-0.602,0.064-1.198-0.164-1.603-0.613c-3.055-3.376-5.359-7.362-6.761-11.695c-0.187-0.575-0.086-1.205,0.27-1.693
	l6.101-8.332l-6.101-8.329c-0.357-0.489-0.458-1.121-0.27-1.697c1.402-4.331,3.707-8.315,6.761-11.691
	c0.401-0.456,0.998-0.689,1.603-0.629l10.255,1.116l4.164-9.429c0.245-0.555,0.742-0.958,1.336-1.084
	c4.451-0.937,9.048-0.937,13.499,0c0.593,0.125,1.091,0.529,1.335,1.084l4.165,9.444l10.252-1.116
	c0.605-0.062,1.204,0.172,1.606,0.628c3.053,3.377,5.356,7.362,6.76,11.692c0.187,0.577,0.086,1.208-0.272,1.697L55.458,33.6
	l6.094,8.332c0.357,0.489,0.459,1.119,0.273,1.694c-1.403,4.332-3.706,8.317-6.76,11.694c-0.406,0.451-1.003,0.68-1.606,0.613
	l-10.252-1.116l-4.164,9.43c-0.245,0.555-0.742,0.959-1.336,1.084C35.487,65.799,33.225,66.037,30.956,66.036z M25.927,61.824
	c3.327,0.584,6.73,0.584,10.057,0l4.325-9.806c0.331-0.753,1.112-1.205,1.929-1.115l10.648,1.159
	c2.179-2.583,3.881-5.533,5.029-8.712l-6.32-8.646c-0.486-0.664-0.486-1.565,0-2.229l6.333-8.649
	c-1.146-3.18-2.85-6.129-5.029-8.712l-10.648,1.156c-0.817,0.089-1.598-0.36-1.93-1.113l-4.334-9.809
	c-3.327-0.584-6.73-0.584-10.057,0l-4.322,9.806c-0.332,0.752-1.113,1.202-1.929,1.112L9.031,15.111
	c-2.182,2.581-3.885,5.531-5.028,8.712l6.329,8.649c0.486,0.664,0.486,1.565,0,2.229L3.987,43.35
	c1.145,3.18,2.847,6.131,5.029,8.712l10.648-1.159c0.818-0.09,1.599,0.362,1.93,1.115L25.927,61.824z"/>
<path fill="#1e7eae" d="M30.956,47.087c-7.464,0-13.515-6.051-13.515-13.515s6.051-13.515,13.515-13.515
	c7.464,0,13.515,6.051,13.515,13.515S38.42,47.087,30.956,47.087L30.956,47.087z M30.956,23.857c-5.381,0-9.743,4.362-9.743,9.743
	c0,5.381,4.362,9.744,9.743,9.744c5.38,0,9.743-4.362,9.743-9.744c0-0.005,0-0.01,0-0.015C40.69,28.21,36.331,23.857,30.956,23.857
	L30.956,23.857z"/>
<path fill="#1e7eae" d="M84.369,48.309c-1.689,0.001-3.375-0.175-5.028-0.524c-0.594-0.125-1.091-0.529-1.336-1.084l-2.882-6.537
	l-7.097,0.773c-0.604,0.061-1.201-0.173-1.603-0.628c-2.273-2.513-3.987-5.479-5.029-8.703c-0.186-0.576-0.084-1.206,0.273-1.693
	l4.218-5.765l-4.218-5.764c-0.359-0.489-0.46-1.121-0.273-1.697c1.043-3.224,2.757-6.19,5.029-8.703
	c0.405-0.449,1.001-0.676,1.603-0.61l7.097,0.77l2.882-6.534c0.245-0.556,0.742-0.959,1.336-1.084c3.315-0.699,6.741-0.699,10.057,0
	c0.593,0.126,1.089,0.53,1.333,1.084l2.883,6.534l7.096-0.77c0.603-0.067,1.2,0.16,1.606,0.61c2.271,2.513,3.985,5.479,5.029,8.703
	c0.188,0.576,0.086,1.208-0.271,1.697l-4.222,5.764l4.222,5.765c0.355,0.488,0.457,1.118,0.271,1.693
	c-1.043,3.224-2.757,6.19-5.029,8.703c-0.402,0.457-1,0.69-1.606,0.628l-7.096-0.773L90.73,46.7
	c-0.244,0.555-0.74,0.958-1.333,1.084C87.744,48.134,86.06,48.31,84.369,48.309z M81.058,44.268c2.189,0.357,4.425,0.357,6.614,0
	l3.04-6.89c0.331-0.751,1.11-1.201,1.926-1.112l7.483,0.814c1.412-1.714,2.531-3.649,3.313-5.727l-4.447-6.078
	c-0.485-0.664-0.485-1.565,0-2.229l4.451-6.079c-0.781-2.077-1.9-4.011-3.313-5.724l-7.482,0.812
	c-0.816,0.087-1.595-0.362-1.926-1.113l-3.04-6.889c-2.19-0.355-4.425-0.355-6.615,0l-3.037,6.889
	c-0.331,0.751-1.112,1.202-1.929,1.113l-7.483-0.812c-1.411,1.713-2.531,3.647-3.313,5.724l4.443,6.079
	c0.486,0.663,0.486,1.565,0,2.229l-4.45,6.078c0.782,2.078,1.902,4.012,3.313,5.727l7.49-0.805c0.816-0.089,1.598,0.361,1.929,1.113
	L81.058,44.268z"/>
<path fill="#1e7eae" d="M84.369,34.509c-5.714,0.002-10.348-4.629-10.35-10.343s4.629-10.348,10.344-10.35
	s10.348,4.629,10.35,10.343c0,0.001,0,0.002,0,0.003C94.699,29.87,90.077,34.493,84.369,34.509z M84.369,17.587
	c-3.631-0.001-6.576,2.94-6.578,6.572c-0.001,3.631,2.941,6.577,6.572,6.579c3.631,0.001,6.576-2.941,6.578-6.572
	c0-0.001,0-0.002,0-0.003C90.938,20.534,87.998,17.593,84.369,17.587L84.369,17.587z"/>
<path fill="#1e7eae" d="M65.886,97.971c-1.689,0-3.375-0.176-5.028-0.525c-0.593-0.127-1.088-0.53-1.332-1.085l-2.883-6.533
	l-7.096,0.77c-0.602,0.064-1.198-0.163-1.603-0.613c-2.272-2.512-3.986-5.477-5.029-8.699c-0.188-0.576-0.087-1.208,0.271-1.697
	l4.221-5.764l-4.221-5.764c-0.358-0.49-0.458-1.122-0.271-1.698c1.042-3.224,2.756-6.189,5.029-8.703
	c0.406-0.448,1.002-0.675,1.603-0.609l7.096,0.771l2.883-6.534c0.244-0.554,0.739-0.958,1.332-1.084
	c3.315-0.699,6.74-0.699,10.057,0c0.594,0.126,1.089,0.53,1.333,1.084l2.882,6.534l7.097-0.771c0.602-0.065,1.197,0.161,1.604,0.609
	c2.272,2.514,3.986,5.479,5.028,8.703c0.188,0.577,0.085,1.208-0.273,1.698l-4.218,5.764l4.233,5.764
	c0.358,0.488,0.461,1.121,0.274,1.697c-1.043,3.223-2.757,6.188-5.029,8.699c-0.405,0.45-1.002,0.678-1.603,0.613l-7.097-0.77
	l-2.889,6.533c-0.244,0.555-0.74,0.958-1.333,1.085C69.268,97.796,67.579,97.972,65.886,97.971z M62.579,93.931
	c2.191,0.356,4.426,0.356,6.616,0l3.036-6.889c0.331-0.753,1.112-1.204,1.93-1.116l7.483,0.815c1.412-1.714,2.531-3.649,3.313-5.727
	l-4.45-6.083c-0.485-0.662-0.485-1.564,0-2.227l4.45-6.076c-0.781-2.078-1.9-4.014-3.313-5.727l-7.483,0.83
	c-0.817,0.089-1.599-0.363-1.93-1.116l-3.036-6.89c-2.19-0.354-4.425-0.354-6.616,0l-3.036,6.89
	c-0.331,0.753-1.111,1.205-1.929,1.116l-7.483-0.814c-1.413,1.713-2.532,3.648-3.313,5.727l4.45,6.075
	c0.486,0.664,0.486,1.565,0,2.229l-4.45,6.079c0.781,2.077,1.9,4.012,3.313,5.726l7.483-0.82c0.816-0.089,1.598,0.361,1.929,1.112
	L62.579,93.931z"/>
<path fill="#1e7eae" d="M65.886,84.169c-5.715,0-10.347-4.632-10.347-10.346s4.633-10.347,10.347-10.347s10.347,4.633,10.347,10.347
	C76.219,79.532,71.595,84.156,65.886,84.169z M65.886,67.249c-3.631,0-6.574,2.943-6.574,6.575c0,3.631,2.943,6.574,6.574,6.574
	s6.575-2.943,6.575-6.574C72.457,70.194,69.516,67.251,65.886,67.249L65.886,67.249z"/>
</svg>
